<svg xmlns="http://www.w3.org/2000/svg">

 <style> :root svg:not(:target) { display: none } </style>

 <svg id="icon-user" viewBox="0 0 16 16">
  <path fill-rule="evenodd" clip-rule="evenodd" d="M10.6667 4C10.6667 5.47276 9.47276 6.66667 8 6.66667C6.52724 6.66667 5.33333 5.47276 5.33333 4C5.33333 2.52724 6.52724 1.33333 8 1.33333C9.47276 1.33333 10.6667 2.52724 10.6667 4ZM12 4C12 6.20914 10.2091 8 8 8C5.79086 8 4 6.20914 4 4C4 1.79086 5.79086 0 8 0C10.2091 0 12 1.79086 12 4ZM3.19673 12.3102C4.43611 11.2774 6.1613 10.6667 8 10.6667C9.8387 10.6667 11.5639 11.2774 12.8033 12.3102C14.0354 13.337 14.6667 14.6719 14.6667 16H16C16 14.2321 15.1573 12.5363 13.6569 11.286C12.1566 10.0357 10.1218 9.33333 8 9.33333C5.87821 9.33333 3.8434 10.0357 2.34315 11.286C0.842686 12.5363 0 14.2321 0 16L1.33333 16C1.33333 14.6719 1.96465 13.337 3.19673 12.3102Z" fill="#333333"/>
</svg>

<svg id="icon-basket" viewBox="0 0 16 16">
  <path fill-rule="evenodd" clip-rule="evenodd" d="M5.66091 3.87546L5.89351 6.66667H10.1065L10.3391 3.87546C10.4531 2.50699 9.37321 1.33333 8 1.33333C6.62679 1.33333 5.54687 2.50699 5.66091 3.87546ZM11.4444 6.66667L11.6678 3.98618C11.8466 1.84036 10.1533 0 8 0C5.84674 0 4.15336 1.84036 4.33218 3.98618L4.55556 6.66667H1.34687H0L0.190476 8L1.00626 13.7105C1.19393 15.0242 2.31905 16 3.64612 16H12.3539C13.6809 16 14.8061 15.0242 14.9937 13.7105L15.8095 8L16 6.66667H14.6531H11.4444ZM11.3333 8H11.2801L11.0579 10.6667H14.0817L14.4627 8H11.3333ZM9.94213 8H6.05787L6.28009 10.6667H9.71991L9.94213 8ZM4.71991 8H4.66667H1.53735L1.9183 10.6667H4.94213L4.71991 8ZM6.61342 14.6667L6.3912 12H9.6088L9.38658 14.6667H6.61342ZM10.9468 12L10.7245 14.6667H12.3539C13.0174 14.6667 13.58 14.1788 13.6738 13.5219L13.8912 12H10.9468ZM5.05324 12L5.27547 14.6667H3.64612C2.98259 14.6667 2.42003 14.1788 2.32619 13.5219L2.10877 12H5.05324Z" fill="#333333"/>
</svg>

<svg id="icon-arrow" viewBox="0 0 11 20">
  <path fill-rule="evenodd" clip-rule="evenodd" d="M1.28339 0L0 1.32082L8.43323 10L0 18.6792L1.28339 20L11 10L1.28339 0Z" fill="#7859CF"/>
</svg>

<svg id="icon-arrow-back" viewBox="0 0 11 20">
  <path fill-rule="evenodd" clip-rule="evenodd" d="M9.71661 0L11 1.32082L2.56677 10L11 18.6792L9.71661 20L0 10L9.71661 0Z" fill="#7859CF"/>
</svg>

<svg id="icon-speed" viewBox="0 0 50 56">
  <path fill-rule="evenodd" clip-rule="evenodd" d="M23 4H31V7H28V10.0213C31.8152 10.1846 35.3896 11.2772 38.5027 13.0786C40.354 11.1476 44.7551 13.2459 43.2635 16.7365C43.2309 16.704 43.1983 16.6716 43.1656 16.6393C47.3853 20.8089 50 26.5991 50 33C50 45.7025 39.7025 56 27 56C14.2975 56 4 45.7025 4 33C4 26.3297 6.83949 20.3226 11.3757 16.1215C11.1588 16.3222 10.9457 16.5272 10.7365 16.7364C8.70719 13.7075 13.3199 10.5817 15.4975 13.0784C18.6105 11.2771 22.1849 10.1846 26 10.0213V7H23V4Z" fill="#F0EBFF"/>
  <path fill-rule="evenodd" clip-rule="evenodd" d="M26 1H20V2L22 2L24 2H26V1ZM24 3H26H27V2V1V0H26H20H19V1V2V3H20H22V6.02135C18.5463 6.1691 15.2898 7.07848 12.3944 8.58582L12.2544 8.42496C10.7163 6.6569 8.39521 6.98255 6.95484 8.02395C6.21517 8.55874 5.60253 9.33813 5.35204 10.2775C5.09438 11.2438 5.24251 12.3031 5.90574 13.293L6.02865 13.4765C2.28444 17.5676 0 23.017 0 29C0 41.7025 10.2975 52 23 52C35.7025 52 46 41.7025 46 29C46 23.0401 43.7331 17.6096 40.0145 13.5238L40.183 13.1295C40.6454 12.0474 40.6748 11.0021 40.3518 10.087C40.0339 9.1862 39.4018 8.48773 38.6665 8.02632C37.2591 7.14319 35.1326 6.97177 33.777 8.39054L33.5955 8.58053C30.7025 7.07636 27.4497 6.16892 24 6.02135V3ZM23 7C19.1406 7 15.5133 7.99379 12.36 9.73944L12 9.94732C10.5856 10.7639 9.26738 11.735 8.06924 12.8421C3.72198 16.8612 1 22.6127 1 29C1 41.1503 10.8497 51 23 51C35.1503 51 45 41.1503 45 29C45 22.9249 42.5376 17.4248 38.5563 13.4436C38.4319 13.3192 38.306 13.1963 38.1787 13.0749C36.9153 11.8707 35.5126 10.8207 34 9.94741L33.6357 9.7371C30.4835 7.99291 26.8577 7 23 7ZM11.4975 9.07845C10.0109 9.93867 8.62944 10.9605 7.37728 12.12C7.15986 12.3212 6.94622 12.5267 6.73652 12.7364C6.51811 12.4104 6.37664 12.0833 6.30079 11.7622C5.75443 9.44925 8.61277 7.44804 10.6466 8.42332C10.9539 8.57068 11.2424 8.78599 11.4975 9.07845ZM34.5027 9.07856C36.0672 9.98386 37.5152 11.0682 38.8186 12.3035C38.9688 12.4458 39.1171 12.5902 39.2635 12.7365C39.43 12.3468 39.523 11.9745 39.5544 11.6232C39.7632 9.28719 37.2441 7.88062 35.4507 8.48214C35.0978 8.60048 34.7731 8.79655 34.5027 9.07856ZM23 31C24.1046 31 25 30.1046 25 29C25 28.2049 24.536 27.5182 23.8641 27.1958L22.9501 27.0006C21.8686 27.0271 21 27.9121 21 29C21 30.1046 21.8954 31 23 31ZM22.3638 26.0676L21.0176 21.1316L20.9778 20.9855L21.0257 20.8419L22.5257 16.3419L23 14.9189L23.4743 16.3419L24.9743 20.8419L25.0222 20.9855L24.9824 21.1316L23.6362 26.0676C23.7657 26.0956 23.8921 26.1319 24.0148 26.176L31.5642 12.7549L32.4358 13.2451L24.8861 26.6669C25.5656 27.2169 26 28.0577 26 29C26 30.6569 24.6569 32 23 32C21.3431 32 20 30.6569 20 29C20 27.5614 21.0125 26.3594 22.3638 26.0676ZM22.0222 21.0145L23 24.5997L23.9778 21.0145L23 18.0811L22.0222 21.0145Z" fill="#7859CF"/>
</svg>

</svg>
